<mxfile modified="2023-11-12T08:52:59.980Z" host="app.diagrams.net" agent="Mozilla/5.0 (X11; Linux x86_64) AppleWebKit/537.36 (KHTML, like Gecko) Chrome/119.0.0.0 Safari/537.36" etag="_E466roVzkg1uff3VzKG" version="22.1.0" type="github">
  <diagram id="C2fSY1v2SiZeoUbDoYyL" name="Page-1">
    <mxGraphModel dx="840" dy="509" grid="1" gridSize="10" guides="1" tooltips="1" connect="1" arrows="1" fold="1" page="1" pageScale="1" pageWidth="1169" pageHeight="827" math="0" shadow="0">
      <root>
        <mxCell id="0" />
        <mxCell id="1" parent="0" />
        <mxCell id="3ne1QswCM8ZiEu4GHsYG-29" style="orthogonalLoop=1;jettySize=auto;html=1;curved=1;sourcePerimeterSpacing=5;targetPerimeterSpacing=5;" parent="1" edge="1">
          <mxGeometry relative="1" as="geometry">
            <mxPoint x="927.5" y="351.00000000000045" as="sourcePoint" />
            <mxPoint x="979.5" y="351.00000000000045" as="targetPoint" />
          </mxGeometry>
        </mxCell>
        <mxCell id="3ne1QswCM8ZiEu4GHsYG-30" style="orthogonalLoop=1;jettySize=auto;html=1;curved=1;sourcePerimeterSpacing=5;targetPerimeterSpacing=5;" parent="1" edge="1">
          <mxGeometry relative="1" as="geometry">
            <mxPoint x="1037.5" y="351.00000000000045" as="sourcePoint" />
            <mxPoint x="1079.5" y="351.0000000000002" as="targetPoint" />
          </mxGeometry>
        </mxCell>
        <mxCell id="3ne1QswCM8ZiEu4GHsYG-31" value="Company Goods Delivery Procedure" style="text;html=1;strokeColor=none;fillColor=none;align=center;verticalAlign=middle;whiteSpace=wrap;rounded=0;fontStyle=1;fontSize=20;fontColor=#4D4D4D;" parent="1" vertex="1">
          <mxGeometry x="189.5" y="50" width="790" height="30" as="geometry" />
        </mxCell>
        <mxCell id="3ne1QswCM8ZiEu4GHsYG-32" value="" style="line;strokeWidth=2;html=1;fontSize=20;fontColor=#4D4D4D;" parent="1" vertex="1">
          <mxGeometry x="103.5" y="80" width="960" height="10" as="geometry" />
        </mxCell>
        <mxCell id="upHs8nky9k-YQ6gJDUU1-9" style="edgeStyle=orthogonalEdgeStyle;rounded=0;orthogonalLoop=1;jettySize=auto;html=1;" edge="1" parent="1" source="upHs8nky9k-YQ6gJDUU1-2">
          <mxGeometry relative="1" as="geometry">
            <mxPoint x="670" y="500" as="targetPoint" />
          </mxGeometry>
        </mxCell>
        <mxCell id="upHs8nky9k-YQ6gJDUU1-14" style="edgeStyle=orthogonalEdgeStyle;rounded=0;orthogonalLoop=1;jettySize=auto;html=1;exitX=0;exitY=0.5;exitDx=0;exitDy=0;entryX=0.5;entryY=0;entryDx=0;entryDy=0;" edge="1" parent="1" source="upHs8nky9k-YQ6gJDUU1-2" target="upHs8nky9k-YQ6gJDUU1-3">
          <mxGeometry relative="1" as="geometry" />
        </mxCell>
        <mxCell id="upHs8nky9k-YQ6gJDUU1-2" value="Contrato en Tesnet" style="whiteSpace=wrap;html=1;fillColor=#e1d5e7;strokeColor=#9673a6;" vertex="1" parent="1">
          <mxGeometry x="370" y="414" width="120" height="40" as="geometry" />
        </mxCell>
        <mxCell id="upHs8nky9k-YQ6gJDUU1-18" style="edgeStyle=orthogonalEdgeStyle;rounded=0;orthogonalLoop=1;jettySize=auto;html=1;" edge="1" parent="1" source="upHs8nky9k-YQ6gJDUU1-3" target="upHs8nky9k-YQ6gJDUU1-17">
          <mxGeometry relative="1" as="geometry" />
        </mxCell>
        <mxCell id="upHs8nky9k-YQ6gJDUU1-3" value="Código Componente" style="whiteSpace=wrap;html=1;fillColor=#e1d5e7;strokeColor=#9673a6;" vertex="1" parent="1">
          <mxGeometry x="120" y="560" width="120" height="40" as="geometry" />
        </mxCell>
        <mxCell id="upHs8nky9k-YQ6gJDUU1-15" style="edgeStyle=orthogonalEdgeStyle;rounded=0;orthogonalLoop=1;jettySize=auto;html=1;exitX=0.5;exitY=0;exitDx=0;exitDy=0;entryX=1;entryY=0.25;entryDx=0;entryDy=0;" edge="1" parent="1" source="upHs8nky9k-YQ6gJDUU1-4" target="upHs8nky9k-YQ6gJDUU1-3">
          <mxGeometry relative="1" as="geometry" />
        </mxCell>
        <mxCell id="upHs8nky9k-YQ6gJDUU1-4" value="Estilo.css" style="whiteSpace=wrap;html=1;fillColor=#e1d5e7;strokeColor=#9673a6;" vertex="1" parent="1">
          <mxGeometry x="230" y="680" width="120" height="40" as="geometry" />
        </mxCell>
        <mxCell id="upHs8nky9k-YQ6gJDUU1-5" value="ABI.json" style="whiteSpace=wrap;html=1;fillColor=#e1d5e7;strokeColor=#9673a6;" vertex="1" parent="1">
          <mxGeometry x="600" y="520" width="120" height="40" as="geometry" />
        </mxCell>
        <mxCell id="upHs8nky9k-YQ6gJDUU1-11" style="edgeStyle=orthogonalEdgeStyle;rounded=0;orthogonalLoop=1;jettySize=auto;html=1;exitX=0.5;exitY=0;exitDx=0;exitDy=0;entryX=0;entryY=0.5;entryDx=0;entryDy=0;" edge="1" parent="1" source="upHs8nky9k-YQ6gJDUU1-6" target="upHs8nky9k-YQ6gJDUU1-3">
          <mxGeometry relative="1" as="geometry" />
        </mxCell>
        <mxCell id="upHs8nky9k-YQ6gJDUU1-6" value="Assets&lt;br&gt;&amp;nbsp;Gráficos" style="whiteSpace=wrap;html=1;fillColor=#e1d5e7;strokeColor=#9673a6;" vertex="1" parent="1">
          <mxGeometry x="30" y="680" width="120" height="40" as="geometry" />
        </mxCell>
        <mxCell id="upHs8nky9k-YQ6gJDUU1-16" style="edgeStyle=orthogonalEdgeStyle;rounded=0;orthogonalLoop=1;jettySize=auto;html=1;entryX=0.693;entryY=0.015;entryDx=0;entryDy=0;entryPerimeter=0;" edge="1" parent="1" source="upHs8nky9k-YQ6gJDUU1-5" target="upHs8nky9k-YQ6gJDUU1-3">
          <mxGeometry relative="1" as="geometry" />
        </mxCell>
        <mxCell id="upHs8nky9k-YQ6gJDUU1-17" value="NEAR Sandbox" style="whiteSpace=wrap;html=1;fillColor=#e1d5e7;strokeColor=#9673a6;" vertex="1" parent="1">
          <mxGeometry x="390" y="600" width="120" height="40" as="geometry" />
        </mxCell>
        <mxCell id="upHs8nky9k-YQ6gJDUU1-19" value="NEAR Mainnet" style="whiteSpace=wrap;html=1;fillColor=#e1d5e7;strokeColor=#9673a6;" vertex="1" parent="1">
          <mxGeometry x="510" y="680" width="120" height="40" as="geometry" />
        </mxCell>
        <mxCell id="upHs8nky9k-YQ6gJDUU1-20" style="edgeStyle=orthogonalEdgeStyle;rounded=0;orthogonalLoop=1;jettySize=auto;html=1;entryX=0.633;entryY=-0.089;entryDx=0;entryDy=0;entryPerimeter=0;" edge="1" parent="1" source="upHs8nky9k-YQ6gJDUU1-17" target="upHs8nky9k-YQ6gJDUU1-19">
          <mxGeometry relative="1" as="geometry" />
        </mxCell>
      </root>
    </mxGraphModel>
  </diagram>
</mxfile>
